<svg xmlns="http://www.w3.org/2000/svg" width="24" height="28.999" viewBox="0 0 24 28.999"><g transform="translate(-39.995)"><g transform="translate(39.995)"><g transform="translate(0)"><path d="M63.89,25.193l-3.042-3.911A4.4,4.4,0,0,0,63.255,19.5c.716-1.238.392-2.75.079-4.21A11.5,11.5,0,0,1,63,13a11.5,11.5,0,0,1,.338-2.292c.311-1.461.637-2.971-.079-4.208-.742-1.282-2.236-1.756-3.681-2.214A10.708,10.708,0,0,1,57.5,3.471a10.157,10.157,0,0,1-1.665-1.35C54.758,1.126,53.542,0,52,0S49.233,1.126,48.16,2.121A10.16,10.16,0,0,1,46.5,3.471a10.7,10.7,0,0,1-2.078.812c-1.445.458-2.939.932-3.681,2.214-.716,1.238-.392,2.75-.079,4.21A11.5,11.5,0,0,1,41,13a11.5,11.5,0,0,1-.338,2.292c-.311,1.461-.637,2.971.079,4.208a4.4,4.4,0,0,0,2.409,1.781L40.1,25.192a.5.5,0,0,0,.457.8l3.575-.446.882,3.088a.5.5,0,0,0,.385.353A.51.51,0,0,0,45.5,29a.5.5,0,0,0,.395-.193L49.083,24.7A4.623,4.623,0,0,0,52,26a4.623,4.623,0,0,0,2.912-1.3L58.1,28.8A.5.5,0,0,0,58.5,29a.51.51,0,0,0,.1-.009.5.5,0,0,0,.385-.353l.882-3.087L63.433,26a.5.5,0,0,0,.457-.8ZM45.705,27.415l-.729-2.553a.5.5,0,0,0-.542-.358l-2.8.35,2.509-3.226.276.088a10.7,10.7,0,0,1,2.076.812,10.157,10.157,0,0,1,1.665,1.35l.172.159ZM52,25c-1.155,0-2.126-.9-3.155-1.854A11.021,11.021,0,0,0,47,21.662a11.593,11.593,0,0,0-2.276-.9C43.4,20.343,42.149,19.947,41.6,19c-.523-.9-.253-2.165.034-3.5A12.244,12.244,0,0,0,42,13a12.239,12.239,0,0,0-.36-2.5C41.349,9.165,41.079,7.9,41.6,7c.55-.947,1.8-1.343,3.118-1.762A11.6,11.6,0,0,0,47,4.337a11.021,11.021,0,0,0,1.844-1.483C49.869,1.9,50.84,1,52,1s2.126.9,3.155,1.854A11.021,11.021,0,0,0,57,4.337a11.593,11.593,0,0,0,2.276.9c1.321.419,2.57.815,3.118,1.762.523.9.253,2.165-.033,3.5A12.244,12.244,0,0,0,62,13a12.239,12.239,0,0,0,.36,2.5c.286,1.334.556,2.595.034,3.5-.55.947-1.8,1.343-3.118,1.762a11.6,11.6,0,0,0-2.276.9,11.021,11.021,0,0,0-1.844,1.483C54.122,24.1,53.15,25,52,25Zm7.564-.5a.5.5,0,0,0-.542.358l-.732,2.553-2.627-3.377.172-.159a10.16,10.16,0,0,1,1.665-1.35,10.705,10.705,0,0,1,2.078-.812l.276-.088,2.51,3.226Z" transform="translate(-39.995)" fill="#fab702"/></g></g><g transform="translate(42.995 4)"><g transform="translate(0)"><path d="M97,64a9,9,0,1,0,9,9A9,9,0,0,0,97,64Zm0,17a8,8,0,1,1,8-8A8,8,0,0,1,97,81Z" transform="translate(-88 -64)" fill="#fab702"/></g></g><g transform="translate(46.034 6.898)"><g transform="translate(0)"><path d="M148.346,114.389a1,1,0,0,0-.808-.411h-3.061l-.95-2.913a1,1,0,0,0-1.9,0l-.947,2.913h-3.063a1,1,0,0,0-.589,1.808l2.478,1.8-.946,2.913a1,1,0,0,0,1.539,1.118l2.479-1.8,2.478,1.8a1,1,0,0,0,1.539-1.118l-.946-2.914,2.478-1.8A1,1,0,0,0,148.346,114.389Zm-3.58,2.6a.5.5,0,0,0-.182.559l1.059,3.259-2.772-2.014a.5.5,0,0,0-.587,0l-2.772,2.014,1.058-3.259a.5.5,0,0,0-.182-.559l-2.772-2.014h3.426a.5.5,0,0,0,.475-.345l1.059-3.259,1.059,3.258a.5.5,0,0,0,.475.345h3.426Z" transform="translate(-136.616 -110.376)" fill="#fab702"/></g></g></g></svg>