<svg xmlns="http://www.w3.org/2000/svg" width="24" height="22.208" viewBox="0 0 24 22.208"><g transform="translate(-1478 -13)"><g transform="translate(1485.953 30.987)"><g transform="translate(0 0)"><path d="M171.767,402.828a2.111,2.111,0,1,0,2.111,2.111A2.113,2.113,0,0,0,171.767,402.828Zm0,3.043a.932.932,0,1,1,.932-.932A.933.933,0,0,1,171.767,405.871Z" transform="translate(-169.656 -402.828)" fill="#fab702"/></g></g><g transform="translate(1493.356 30.987)"><g transform="translate(0 0)"><path d="M329.712,402.828a2.111,2.111,0,1,0,2.111,2.111A2.113,2.113,0,0,0,329.712,402.828Zm0,3.043a.932.932,0,1,1,.932-.932A.933.933,0,0,1,329.712,405.871Z" transform="translate(-327.601 -402.828)" fill="#fab702"/></g></g><g transform="translate(1486.953 19.874)"><path d="M200.03,165.755h-8.444a.589.589,0,1,0,0,1.179h8.444a.589.589,0,0,0,0-1.179Z" transform="translate(-190.996 -165.755)" fill="#fab702"/></g><g transform="translate(1487.413 22.934)"><g transform="translate(0 0)"><path d="M208.916,231.035h-7.525a.589.589,0,0,0,0,1.179h7.525a.589.589,0,0,0,0-1.179Z" transform="translate(-200.802 -231.035)" fill="#fab702"/></g></g><g transform="translate(1478 13)"><g transform="translate(0)"><path d="M23.734,23.362a1.174,1.174,0,0,0-.914-.434H4.466l-.371-1.8a1.18,1.18,0,0,0-.685-.843L.824,19.163a.589.589,0,0,0-.469,1.081l2.586,1.123,2.851,13.84a1.183,1.183,0,0,0,1.154.941H21.063a.589.589,0,0,0,0-1.179H6.946L6.6,33.286H21.173a1.183,1.183,0,0,0,1.154-.941l1.648-8A1.174,1.174,0,0,0,23.734,23.362Zm-2.562,8.745H6.357l-1.648-8H22.821Z" transform="translate(0 -19.114)" fill="#fab702"/></g></g></g></svg>