<svg xmlns="http://www.w3.org/2000/svg" width="16" height="18.006" viewBox="0 0 16 18.006"><g transform="translate(-27.635)"><rect width="1.591" height="1.591" transform="translate(34.839 14.089)" fill="#fab702"/><rect width="1.591" height="1.591" transform="translate(30.301 9.595)" fill="#fab702"/><rect width="1.591" height="1.591" transform="translate(30.301 14.089)" fill="#fab702"/><rect width="1.591" height="6.085" transform="translate(39.332 9.595)" fill="#fab702"/><rect width="1.591" height="1.591" transform="translate(34.839 9.595)" fill="#fab702"/><rect width="10.668" height="2.075" transform="translate(30.301 2.326)" fill="#fab702"/><path d="M42.5,0H28.772a1.137,1.137,0,0,0-1.137,1.137V16.869a1.137,1.137,0,0,0,1.137,1.137H42.5a1.137,1.137,0,0,0,1.137-1.137V1.137A1.137,1.137,0,0,0,42.5,0ZM32.981,16.225a.545.545,0,0,1-.545.545h-2.68a.545.545,0,0,1-.545-.545v-2.68A.545.545,0,0,1,29.757,13h2.68a.545.545,0,0,1,.545.545ZM29.212,6.96a.545.545,0,0,1,.545-.545h5.274a.545.545,0,1,1,0,1.089H29.757A.545.545,0,0,1,29.212,6.96Zm3.769,4.771a.545.545,0,0,1-.545.545h-2.68a.545.545,0,0,1-.545-.545V9.051a.545.545,0,0,1,.545-.545h2.68a.545.545,0,0,1,.545.545Zm4.538,4.494a.545.545,0,0,1-.545.545h-2.68a.545.545,0,0,1-.545-.545v-2.68A.545.545,0,0,1,34.295,13h2.68a.545.545,0,0,1,.545.545Zm0-4.494a.545.545,0,0,1-.545.545h-2.68a.545.545,0,0,1-.545-.545V9.051a.545.545,0,0,1,.545-.545h2.68a.545.545,0,0,1,.545.545Zm4.493,4.494a.545.545,0,0,1-.545.545h-2.68a.545.545,0,0,1-.545-.545V9.051a.545.545,0,0,1,.545-.545h2.68a.545.545,0,0,1,.545.545ZM38.243,7.29V6.631a.545.545,0,1,1,1.089,0V7.29a.545.545,0,1,1-1.089,0Zm1.34,0V6.631a.545.545,0,1,1,1.089,0V7.29a.545.545,0,1,1-1.089,0Zm1.34,0V6.631a.545.545,0,0,1,1.089,0V7.29a.545.545,0,0,1-1.089,0Zm1.135-2.344a.545.545,0,0,1-.545.545H29.757a.544.544,0,0,1-.545-.545V1.782a.545.545,0,0,1,.545-.545H41.513a.545.545,0,0,1,.545.545Z" fill="#fab702"/></g></svg>