<svg xmlns="http://www.w3.org/2000/svg" width="32" height="36.741" viewBox="0 0 32 36.741"><g transform="translate(-32)"><g transform="translate(32)"><path d="M64,21.333V20.148H60.444V5.088L55.356,0h-19.8V20.148H32v1.185h1.9l1.473,6.381-1.956,1.565a2.194,2.194,0,0,0,1.371,3.906A2.816,2.816,0,0,0,36.5,32.6l.638,2.763a1.769,1.769,0,0,0,1.732,1.378H57.131a1.77,1.77,0,0,0,1.732-1.378L59.5,32.6a2.822,2.822,0,0,0,1.713.585,2.194,2.194,0,0,0,1.371-3.907l-1.956-1.564L62.1,21.333ZM55.7,2.023l2.718,2.718H55.7ZM36.741,1.185H54.519V5.926h4.741V20.148H52.1a4.116,4.116,0,0,0-.426-1.325l2.648-2.383-.793-.881-2.553,2.3a4.139,4.139,0,0,0-7.077,2.29H36.741ZM47.979,22.15l2.772-2.495a2.951,2.951,0,1,1-.655-1.006l-2.075,1.867-.788-.788-.838.838Zm-12.187,9.5a1.626,1.626,0,0,1-1.006.35,1.008,1.008,0,0,1-.631-1.8L35.667,29l.537,2.329Zm-.677-10.317H43.9a4.144,4.144,0,0,0,1.564,2.682l-8.229,6.5ZM57.709,35.1a.59.59,0,0,1-.578.459H53.926V30.222H52.741v5.333H50.37V30.222H49.185v5.333h-2.37V30.222H45.63v5.333h-2.37V30.222H42.074v5.333H38.869a.589.589,0,0,1-.577-.459l-.763-3.307,9.061-7.154a4.066,4.066,0,0,0,2.821,0l9.061,7.154ZM61.844,30.2a1.009,1.009,0,0,1-.63,1.8,1.629,1.629,0,0,1-1.006-.35l-.412-.325L60.332,29Zm-3.077.309-8.23-6.5A4.143,4.143,0,0,0,52.1,21.333h8.784Z" transform="translate(-32)" fill="#fff"/></g><g transform="translate(46.222 4.741)"><path d="M225.778,67.556a.593.593,0,1,1,.593-.593h1.185a1.775,1.775,0,0,0-1.185-1.669V64h-1.185v1.294a1.773,1.773,0,0,0,.593,3.447.593.593,0,1,1-.593.593H224A1.775,1.775,0,0,0,225.185,71V72.3h1.185V71a1.773,1.773,0,0,0-.593-3.447Z" transform="translate(-224 -64)" fill="#fff"/></g><g transform="translate(50.963 8.296)"><rect width="1.185" height="1.185" fill="#fff"/></g><g transform="translate(43.852 8.296)"><g transform="translate(0)"><rect width="1.185" height="1.185" fill="#fff"/></g></g><g transform="translate(41.481 2.37)"><path d="M171.971,42.092a6.523,6.523,0,1,0-.836,1.029l-.839-.837a5.328,5.328,0,1,1,.684-.843Z" transform="translate(-160 -32)" fill="#fff"/></g><g transform="translate(45.63 27.852)"><g transform="translate(0)"><rect width="1.185" height="1.185" fill="#fff"/></g></g><g transform="translate(49.185 27.852)"><rect width="1.185" height="1.185" fill="#fff"/></g></g></svg>