<svg xmlns="http://www.w3.org/2000/svg" width="32" height="32" viewBox="0 0 32 32"><g transform="translate(0.002 0)"><path d="M162.666,35.2h1.067a.533.533,0,0,0,0-1.067h-1.067a.533.533,0,1,0,0,1.067Zm0,0" transform="translate(-152.001 -32)" fill="#fff"/><path d="M257.6,452.266h-1.067a.533.533,0,1,0,0,1.067H257.6a.533.533,0,0,0,0-1.067Zm0,0" transform="translate(-240.002 -424)" fill="#fff"/><path d="M30.4,19.2H20.8a1.6,1.6,0,0,0-1.6,1.6v2.171a6.9,6.9,0,0,0-1.644-.771.53.53,0,0,0-.291-.3L14.99,21a1.057,1.057,0,0,0-1.276.4l-.383.574v-1.96A8.181,8.181,0,0,0,19.449,14.4h.816a1.6,1.6,0,0,0,.532-3.1c0-.167,0-.323,0-.364a9.11,9.11,0,0,0-.519-3.008,1.246,1.246,0,0,0,.076-.154,1.092,1.092,0,0,0-.067-.969l.426-2.981a1.615,1.615,0,0,0-.594-1.484C19.026,1.465,16.41,0,11.2,0S3.371,1.465,2.276,2.338a1.614,1.614,0,0,0-.594,1.484L2.108,6.8a1.094,1.094,0,0,0-.067.969,1.339,1.339,0,0,0,.076.154A9.108,9.108,0,0,0,1.6,10.933c0,.04,0,.2,0,.363a1.524,1.524,0,0,0-.592.37A1.57,1.57,0,0,0,.532,12.8a1.6,1.6,0,0,0,1.6,1.6h.816a8.181,8.181,0,0,0,6.118,5.614v1.96l-.38-.569A1.06,1.06,0,0,0,7.4,21L5.133,21.9a.528.528,0,0,0-.283.284A6.91,6.91,0,0,0,0,28.8v1.6A1.6,1.6,0,0,0,1.6,32H30.4A1.6,1.6,0,0,0,32,30.4V20.8a1.6,1.6,0,0,0-1.6-1.6Zm-3.733,1.067V23l-.771-.514a.533.533,0,0,0-.592,0L24.532,23V20.266ZM19.3,30.933H11.732v-3.28l1.184,1.479a.532.532,0,0,0,.416.2h.039a.531.531,0,0,0,.422-.263l3.419-5.86a5.851,5.851,0,0,1,1.987,1.08V30.4a1.586,1.586,0,0,0,.1.533Zm-4.7-8.945,1.694.678L13.263,27.86l-1.4-1.755ZM17.776,8.056a32.661,32.661,0,0,1-6.578.477,32.649,32.649,0,0,1-6.576-.477l-.019,0a3.1,3.1,0,0,1-1.514-.6l-.011-.011a.228.228,0,0,1-.054-.081.078.078,0,0,1,.007-.023,16.227,16.227,0,0,1,8.167-2,16.346,16.346,0,0,1,8.154,1.993c.008.009.011.021.02.03a.228.228,0,0,1-.054.081l-.011.011a3.1,3.1,0,0,1-1.515.6ZM3,10.243c0,.01,0,.021-.006.031s-.012.018-.016.029q-.108.353-.19.761c-.008.046-.011.091-.019.136H2.665v-.267A8.05,8.05,0,0,1,3,8.649a5.065,5.065,0,0,0,.68.261A13.814,13.814,0,0,0,3,10.243ZM19.4,8.649a8.041,8.041,0,0,1,.333,2.284V11.2h-.108c-.008-.049-.011-.1-.02-.146-.053-.262-.117-.516-.189-.751,0-.011-.012-.019-.016-.029s0-.021-.007-.03a13.755,13.755,0,0,0-.675-1.333,5.062,5.062,0,0,0,.68-.261Zm.867,4.684h-.6c0-.033.013-.065.016-.1a7.493,7.493,0,0,0,.046-.814c0-.051-.006-.1-.007-.154h.541a.522.522,0,0,1,.38.163.512.512,0,0,1,.154.37.534.534,0,0,1-.533.533ZM2.94,3.173c.794-.633,3.188-2.106,8.258-2.106s7.464,1.473,8.258,2.106a.536.536,0,0,1,.2.5l-.344,2.412A17.933,17.933,0,0,0,11.2,4.266,17.934,17.934,0,0,0,3.082,6.083L2.738,3.671a.537.537,0,0,1,.2-.5Zm-.809,10.16A.534.534,0,0,1,1.6,12.8a.523.523,0,0,1,.163-.38.516.516,0,0,1,.375-.153h.535c0,.051-.007.1-.007.154a7.546,7.546,0,0,0,.046.817c0,.033.012.064.016.1Zm1.64-.213a6.256,6.256,0,0,1,.067-1.854c.043-.213.1-.424.157-.628a12.257,12.257,0,0,1,.768-1.465A36.346,36.346,0,0,0,11.2,9.6a36.347,36.347,0,0,0,6.435-.427,12.248,12.248,0,0,1,.767,1.462h0c.062.2.115.416.156.62a6.255,6.255,0,0,1,.069,1.861A7.215,7.215,0,0,1,11.2,19.2,7.215,7.215,0,0,1,3.771,13.12Zm6.36,7.079a9.386,9.386,0,0,0,1.067.068,9.383,9.383,0,0,0,1.067-.068v3.374l-1.067,1.6-1.067-1.6ZM7.795,21.991,10.538,26.1l-1.4,1.755L6.1,22.666ZM1.065,30.4V28.8a5.846,5.846,0,0,1,4.117-5.6L8.6,29.069a.532.532,0,0,0,.422.263h.039a.533.533,0,0,0,.417-.2l1.184-1.479v3.28H1.6a.534.534,0,0,1-.533-.533Zm29.867,0a.534.534,0,0,1-.533.533H20.8a.534.534,0,0,1-.533-.533V20.8a.534.534,0,0,1,.533-.533h2.667V24a.533.533,0,0,0,.829.444l1.3-.869,1.3.869A.533.533,0,0,0,27.732,24V20.266H30.4a.534.534,0,0,1,.533.533Zm0,0" transform="translate(0)" fill="#fff"/><path d="M437.332,418.133h-1.6a.533.533,0,1,0,0,1.067h1.6a.533.533,0,1,0,0-1.067Zm0,0" transform="translate(-408.001 -392)" fill="#fff"/><path d="M413.335,452.266h-3.2a.533.533,0,0,0,0,1.067h3.2a.533.533,0,1,0,0-1.067Zm0,0" transform="translate(-384.003 -424)" fill="#fff"/></g></svg>