<svg xmlns="http://www.w3.org/2000/svg" xmlns:xlink="http://www.w3.org/1999/xlink" width="16" height="16" viewBox="0 0 16 16"><defs><clipPath id="a"><rect width="16" height="16" fill="none"/></clipPath></defs><g clip-path="url(#a)"><g transform="translate(0 0)"><path d="M16,6.121a.252.252,0,0,0-.011-.054.267.267,0,0,0-.015-.046.239.239,0,0,0-.027-.041.251.251,0,0,0-.035-.041S15.9,5.93,15.9,5.926L13.334,3.935V1.87a.8.8,0,0,0-.8-.8H9.644L8.487.172a.791.791,0,0,0-.973,0l-1.157.9H3.467a.8.8,0,0,0-.8.8V3.935L.1,5.927S.1,5.935.092,5.939a.25.25,0,0,0-.035.041.238.238,0,0,0-.027.041.263.263,0,0,0-.015.046A.253.253,0,0,0,0,6.12c0,.006,0,.01,0,.016V15.2a.791.791,0,0,0,.157.471s0,.005,0,.007l.009.007A.8.8,0,0,0,.8,16H15.2a.8.8,0,0,0,.633-.316s.005,0,.007-.006,0-.005,0-.007A.791.791,0,0,0,16,15.2V6.137C16,6.132,16,6.127,16,6.121ZM7.841.593a.256.256,0,0,1,.318,0l.615.478H7.227ZM.867,15.471l6.973-5.417a.256.256,0,0,1,.318,0l6.975,5.417Zm14.6-.416L8.487,9.634a.791.791,0,0,0-.973,0L.534,15.055V6.543L4.9,9.937a.267.267,0,0,0,.327-.422L.791,6.068,2.667,4.61V6.671a.267.267,0,0,0,.533,0V1.87A.267.267,0,0,1,3.467,1.6h9.067a.267.267,0,0,1,.267.267v4.8a.267.267,0,1,0,.533,0V4.61L15.21,6.068,10.763,9.521a.267.267,0,1,0,.327.421l4.378-3.4v8.512Z" transform="translate(-0.001 -0.004)" fill="#fff"/><path d="M159.974,72.5V71.437a3.2,3.2,0,1,0-3.2,3.2.267.267,0,1,0,0-.533,2.667,2.667,0,1,1,2.667-2.667V72.5a.533.533,0,1,1-1.067,0V71.437a.267.267,0,0,0-.533,0,1.067,1.067,0,1,1-1.067-1.067.267.267,0,1,0,0-.533,1.6,1.6,0,1,0,1.078,2.779,1.064,1.064,0,0,0,2.122-.112Z" transform="translate(-148.775 -66.105)" fill="#fff"/></g></g></svg>