<svg xmlns="http://www.w3.org/2000/svg" width="24" height="26.182" viewBox="0 0 24 26.182"><path d="M21.793,10.909l4.63-6.735a.436.436,0,0,0-.36-.683H12.973V1.745a.436.436,0,0,0-.436-.436H3.373V.436a.436.436,0,1,0-.873,0V25.746a.436.436,0,0,0,.873,0V14.836H8.184a2.159,2.159,0,0,0-.448,1.309,2.184,2.184,0,0,0,2.182,2.182H26.064a.436.436,0,0,0,.36-.683ZM3.373,2.182H12.1V13.964H3.373ZM9.918,17.455a1.309,1.309,0,0,1,0-2.618h2.618a.436.436,0,0,0,.436-.436V4.364H25.234l-4.33,6.3a.437.437,0,0,0,0,.494l4.33,6.3Z" transform="translate(-2.5)" fill="#fab702"/></svg>