<svg xmlns="http://www.w3.org/2000/svg" width="38.143" height="48" viewBox="0 0 38.143 48"><g transform="translate(-37.168)"><path d="M53.964,27.919a.437.437,0,0,1-.243-.392V5.648a5.648,5.648,0,1,0-11.3,0v21.9a.456.456,0,0,1-.245.371,10.9,10.9,0,1,0,11.784,0ZM48.072,46.011a8.916,8.916,0,0,1-4.186-16.788l.122-.065a.806.806,0,0,0,.4-.807V5.648a3.659,3.659,0,1,1,7.318,0V28.359a.827.827,0,0,0,.429.812l.1.052a8.916,8.916,0,0,1-4.186,16.788Z" fill="#fff"/><path d="M88.634,88.838a.393.393,0,0,1-.3-.429V65.945a1.459,1.459,0,1,0-2.917,0V88.408a.43.43,0,0,1-.327.441,4.972,4.972,0,1,0,3.541-.011Z" transform="translate(-38.806 -55.936)" fill="#fff"/><path d="M228.134,35.077h7.828a.8.8,0,1,0,0-1.591h-7.828a.8.8,0,0,0,0,1.591Z" transform="translate(-164.955 -29.046)" fill="#fff"/><path d="M228.134,73.743h10.48a.8.8,0,1,0,0-1.591h-10.48a.8.8,0,0,0,0,1.591Z" transform="translate(-164.955 -62.585)" fill="#fff"/><path d="M228.134,112.409h7.828a.8.8,0,1,0,0-1.591h-7.828a.8.8,0,0,0,0,1.591Z" transform="translate(-164.955 -96.124)" fill="#fff"/><path d="M238.613,151.077a.8.8,0,1,0,0-1.591h-10.48a.8.8,0,1,0,0,1.591Z" transform="translate(-164.955 -129.665)" fill="#fff"/><path d="M242.981,226.123l-4.6-5.956a1.574,1.574,0,0,0-2.556,0l-4.6,5.956a1.252,1.252,0,0,0,1.042,2.121h1.085a.269.269,0,0,1,.265.265v6.534a1.858,1.858,0,0,0,1.856,1.856h3.009a1.858,1.858,0,0,0,1.856-1.856V228.51a.269.269,0,0,1,.265-.265h1.342a1.252,1.252,0,0,0,1.042-2.121Zm-1.791.53H240.6a1.858,1.858,0,0,0-1.856,1.856v6.534a.269.269,0,0,1-.265.265h-3.009a.269.269,0,0,1-.265-.265V228.51a1.858,1.858,0,0,0-1.856-1.856h-.368c-.151,0-.094-.082-.094-.082l3.992-5.165s.111-.139.225-.139.232.147.232.147l3.978,5.147S241.382,226.653,241.19,226.653Z" transform="translate(-168.019 -190.406)" fill="#fff"/></g></svg>