<svg xmlns="http://www.w3.org/2000/svg" xmlns:xlink="http://www.w3.org/1999/xlink" width="16.476" height="16.5" viewBox="0 0 16.476 16.5"><defs><clipPath id="a"><rect width="16.476" height="16.5" fill="none"/></clipPath></defs><g clip-path="url(#a)"><g transform="translate(0.499)"><path d="M12.978,36.392a1.574,1.574,0,0,0-1.141-.523,1.627,1.627,0,0,0-1.155.52L9.614,37.452c-.088-.047-.176-.091-.26-.135-.122-.061-.236-.118-.334-.179a11.6,11.6,0,0,1-2.779-2.533,6.842,6.842,0,0,1-.912-1.439c.277-.253.534-.517.783-.77.095-.095.189-.192.284-.287a1.549,1.549,0,0,0,0-2.337l-.922-.922c-.1-.1-.213-.213-.314-.321-.2-.209-.415-.425-.635-.628a1.6,1.6,0,0,0-1.131-.5,1.654,1.654,0,0,0-1.148.5l-.007.007L1.091,29.067a2.471,2.471,0,0,0-.733,1.57,5.92,5.92,0,0,0,.432,2.506,14.54,14.54,0,0,0,2.583,4.309A15.891,15.891,0,0,0,8.666,41.6a8.245,8.245,0,0,0,2.972.878c.071,0,.145.007.213.007a2.545,2.545,0,0,0,1.948-.837c0-.007.01-.01.014-.017a7.676,7.676,0,0,1,.591-.611c.145-.138.294-.284.439-.436a1.685,1.685,0,0,0,.51-1.168,1.623,1.623,0,0,0-.52-1.158Z" transform="translate(-0.344 -26.481)" fill="none" stroke="#fff" stroke-width="1"/><path d="M245.319,86.83a4.346,4.346,0,0,1,3.539,3.539.453.453,0,0,0,.449.378.6.6,0,0,0,.078-.007.456.456,0,0,0,.375-.527,5.255,5.255,0,0,0-4.282-4.282.458.458,0,0,0-.527.371A.451.451,0,0,0,245.319,86.83Z" transform="translate(-236.684 -83.024)" fill="#fff"/><path d="M256.356,7.058A8.653,8.653,0,0,0,249.3.007a.455.455,0,1,0-.149.9,7.729,7.729,0,0,1,6.3,6.3.453.453,0,0,0,.449.378.6.6,0,0,0,.078-.007A.447.447,0,0,0,256.356,7.058Z" transform="translate(-240.386 0)" fill="#fff"/></g></g></svg>