<svg xmlns="http://www.w3.org/2000/svg" width="254.563" height="235.557" viewBox="0 0 254.563 235.557"><g transform="translate(-1478 -13)"><g transform="translate(1562.352 203.78)"><g transform="translate(0 0)"><path d="M192.044,402.828a22.388,22.388,0,1,0,22.388,22.389A22.414,22.414,0,0,0,192.044,402.828Zm0,32.275a9.888,9.888,0,1,1,9.888-9.887A9.9,9.9,0,0,1,192.044,435.1Z" transform="translate(-169.656 -402.828)" fill="#fff"/></g></g><g transform="translate(1640.882 203.78)"><g transform="translate(0 0)"><path d="M349.988,402.828a22.388,22.388,0,1,0,22.389,22.389A22.414,22.414,0,0,0,349.988,402.828Zm0,32.275a9.888,9.888,0,1,1,9.888-9.887A9.9,9.9,0,0,1,349.988,435.1Z" transform="translate(-327.601 -402.828)" fill="#fff"/></g></g><g transform="translate(1572.962 85.909)"><g transform="translate(0)"><path d="M286.815,165.755H197.246a6.25,6.25,0,0,0,0,12.5h89.569a6.25,6.25,0,0,0,0-12.5Z" transform="translate(-190.996 -165.755)" fill="#fff"/></g></g><g transform="translate(1577.839 118.366)"><g transform="translate(0 0)"><path d="M286.871,231.035H207.052a6.25,6.25,0,0,0,0,12.5H286.87a6.25,6.25,0,0,0,0-12.5Z" transform="translate(-200.802 -231.035)" fill="#fff"/></g></g><g transform="translate(1478 13)"><g transform="translate(0 0)"><path d="M251.75,64.175a12.45,12.45,0,0,0-9.69-4.6H47.371L43.44,40.485a12.516,12.516,0,0,0-7.266-8.944L8.74,19.633A6.25,6.25,0,0,0,3.762,31.1L31.2,43.007l30.242,146.8a12.547,12.547,0,0,0,12.243,9.978H223.42a6.25,6.25,0,0,0,0-12.5H73.683L70,169.429H224.578a12.547,12.547,0,0,0,12.243-9.978L254.3,74.593A12.451,12.451,0,0,0,251.75,64.175ZM224.578,156.93H67.429L49.947,72.072H242.06Z" transform="translate(0 -19.114)" fill="#fff"/></g></g></g></svg>