<svg xmlns="http://www.w3.org/2000/svg" width="32" height="29.493" viewBox="0 0 32 29.493"><g transform="translate(0 -20.058)"><g transform="translate(2.499 23.807)"><path d="M50.987,80.043H40.615a.625.625,0,0,0-.625.625v2.5a.625.625,0,0,0,.625.625H50.987a.625.625,0,0,0,.625-.625v-2.5A.625.625,0,0,0,50.987,80.043Zm-.625,2.5H41.24v-1.25h9.123Z" transform="translate(-39.99 -80.043)" fill="#fff"/></g><g transform="translate(2.499 29.306)"><path d="M50.987,168.021H40.615a.625.625,0,1,0,0,1.25H50.987a.625.625,0,1,0,0-1.25Z" transform="translate(-39.99 -168.021)" fill="#fff"/></g><g transform="translate(2.499 31.805)"><path d="M50.987,208.011H40.615a.625.625,0,1,0,0,1.25H50.987a.625.625,0,1,0,0-1.25Z" transform="translate(-39.99 -208.011)" fill="#fff"/></g><g transform="translate(2.499 35.054)"><path d="M50.987,260H40.615a.625.625,0,0,0-.625.625v7.5a.625.625,0,0,0,.625.625H50.987a.625.625,0,0,0,.625-.625v-7.5A.625.625,0,0,0,50.987,260Zm-9.748,1.25h8.614l-3.834,3.834L44.837,263.9a.625.625,0,0,0-.884,0l-2.714,2.714Zm9.123,6.248H42.123l2.272-2.272,1.183,1.183a.625.625,0,0,0,.884,0l3.9-3.9Z" transform="translate(-39.99 -259.999)" fill="#fff"/></g><g transform="translate(0 20.058)"><path d="M31.375,20.058H18.5A3.125,3.125,0,0,0,16,21.307a3.125,3.125,0,0,0-2.5-1.249H.625A.625.625,0,0,0,0,20.683V48.926a.625.625,0,0,0,.625.625H3.5a.625.625,0,1,0,0-1.25H1.25V47.048H13.5A1.881,1.881,0,0,1,15.272,48.3H9.685a.625.625,0,0,0,0,1.25H31.367a.625.625,0,0,0,.625-.625L32,20.683A.625.625,0,0,0,31.375,20.058Zm-16,3.128V46.42A3.112,3.112,0,0,0,13.5,45.8H1.25V21.308H13.5a1.881,1.881,0,0,1,1.874,1.752C15.373,23.1,15.371,23.144,15.371,23.186ZM30.742,48.3H16.728A1.881,1.881,0,0,1,18.5,47.047H30.742Zm.008-2.5H18.5a3.112,3.112,0,0,0-1.871.623V23.186c0-.042,0-.084,0-.126A1.881,1.881,0,0,1,18.5,21.308H30.75Z" transform="translate(0 -20.058)" fill="#fff"/></g><g transform="translate(17.878 35.054)"><path d="M297.053,260H286.681a.625.625,0,1,0,0,1.25h10.372a.625.625,0,1,0,0-1.25Z" transform="translate(-286.056 -259.999)" fill="#fff"/></g><g transform="translate(17.878 37.554)"><path d="M297.053,299.989H286.681a.625.625,0,1,0,0,1.25h10.372a.625.625,0,1,0,0-1.25Z" transform="translate(-286.056 -299.989)" fill="#fff"/></g><g transform="translate(17.878 40.053)"><path d="M297.053,339.979H286.681a.625.625,0,1,0,0,1.25h10.372a.625.625,0,1,0,0-1.25Z" transform="translate(-286.056 -339.979)" fill="#fff"/></g><g transform="translate(17.878 42.552)"><path d="M297.053,379.969H286.681a.625.625,0,1,0,0,1.25h10.372a.625.625,0,1,0,0-1.25Z" transform="translate(-286.056 -379.969)" fill="#fff"/></g><g transform="translate(23.061 23.807)"><path d="M370.036,80.226a.624.624,0,1,0,.183.442A.628.628,0,0,0,370.036,80.226Z" transform="translate(-368.969 -80.043)" fill="#fff"/></g><g transform="translate(17.878 23.807)"><path d="M297.052,80.043h-2.32a.625.625,0,0,0,0,1.25h1.7v6.248H287.3V81.293h1.679a.625.625,0,1,0,0-1.25h-2.3a.625.625,0,0,0-.625.625v7.5a.625.625,0,0,0,.625.625h10.372a.625.625,0,0,0,.625-.625v-7.5A.625.625,0,0,0,297.052,80.043Z" transform="translate(-286.055 -80.043)" fill="#fff"/></g><g transform="translate(6.019 48.301)"><path d="M97.373,472.129a.624.624,0,1,0,.183.442A.629.629,0,0,0,97.373,472.129Z" transform="translate(-96.307 -471.946)" fill="#fff"/></g></g></svg>