<svg xmlns="http://www.w3.org/2000/svg" width="39.181" height="48" viewBox="0 0 39.181 48">
  <g id="choices" transform="translate(-47.031)">
    <g id="Group_4635" data-name="Group 4635" transform="translate(51.841 7.215)">
      <g id="Group_4634" data-name="Group 4634" transform="translate(0)">
        <path id="Path_939" data-name="Path 939" d="M103.9,79.365a.752.752,0,0,0-.752.752,1.653,1.653,0,1,1-1.653-1.653.752.752,0,1,0,0-1.5,3.157,3.157,0,1,0,3.157,3.157A.751.751,0,0,0,103.9,79.365Z" transform="translate(-98.338 -76.96)" fill="#fff"/>
      </g>
    </g>
    <g id="Group_4637" data-name="Group 4637" transform="translate(51.841 16.033)">
      <g id="Group_4636" data-name="Group 4636" transform="translate(0)">
        <path id="Path_940" data-name="Path 940" d="M103.9,173.427a.752.752,0,0,0-.752.752,1.653,1.653,0,1,1-1.653-1.653.752.752,0,1,0,0-1.5,3.157,3.157,0,1,0,3.157,3.157A.751.751,0,0,0,103.9,173.427Z" transform="translate(-98.338 -171.022)" fill="#fff"/>
      </g>
    </g>
    <g id="Group_4639" data-name="Group 4639" transform="translate(59.858 20.042)">
      <g id="Group_4638" data-name="Group 4638" transform="translate(0)">
        <path id="Path_941" data-name="Path 941" d="M190.212,213.779H184.6a.752.752,0,0,0,0,1.5h5.612a.752.752,0,0,0,0-1.5Z" transform="translate(-183.849 -213.779)" fill="#fff"/>
      </g>
    </g>
    <g id="Group_4641" data-name="Group 4641" transform="translate(59.858 16.835)">
      <g id="Group_4640" data-name="Group 4640" transform="translate(0)">
        <path id="Path_942" data-name="Path 942" d="M190.212,179.574H184.6a.752.752,0,0,0,0,1.5h5.612a.752.752,0,0,0,0-1.5Z" transform="translate(-183.849 -179.574)" fill="#fff"/>
      </g>
    </g>
    <g id="Group_4643" data-name="Group 4643" transform="translate(59.858 28.86)">
      <g id="Group_4642" data-name="Group 4642" transform="translate(0)">
        <path id="Path_943" data-name="Path 943" d="M188.609,307.841H184.6a.752.752,0,0,0,0,1.5h4.008a.752.752,0,0,0,0-1.5Z" transform="translate(-183.849 -307.841)" fill="#fff"/>
      </g>
    </g>
    <g id="Group_4645" data-name="Group 4645" transform="translate(59.858 25.653)">
      <g id="Group_4644" data-name="Group 4644" transform="translate(0)">
        <path id="Path_944" data-name="Path 944" d="M190.212,273.637H184.6a.752.752,0,0,0,0,1.5h5.612a.752.752,0,0,0,0-1.5Z" transform="translate(-183.849 -273.637)" fill="#fff"/>
      </g>
    </g>
    <g id="Group_4647" data-name="Group 4647" transform="translate(59.858 11.223)">
      <g id="Group_4646" data-name="Group 4646" transform="translate(0)">
        <path id="Path_945" data-name="Path 945" d="M197.427,119.716H184.6a.752.752,0,0,0,0,1.5h12.827a.752.752,0,0,0,0-1.5Z" transform="translate(-183.849 -119.716)" fill="#fff"/>
      </g>
    </g>
    <g id="Group_4649" data-name="Group 4649" transform="translate(59.858 8.017)">
      <g id="Group_4648" data-name="Group 4648" transform="translate(0)">
        <path id="Path_946" data-name="Path 946" d="M194.221,85.511H184.6a.752.752,0,0,0,0,1.5h9.62a.752.752,0,0,0,0-1.5Z" transform="translate(-183.849 -85.511)" fill="#fff"/>
      </g>
    </g>
    <g id="Group_4651" data-name="Group 4651" transform="translate(51.841 24.852)">
      <g id="Group_4650" data-name="Group 4650" transform="translate(0)">
        <path id="Path_947" data-name="Path 947" d="M103.9,267.49a.752.752,0,0,0-.752.752,1.653,1.653,0,1,1-1.653-1.653.752.752,0,1,0,0-1.5,3.157,3.157,0,1,0,3.157,3.157A.751.751,0,0,0,103.9,267.49Z" transform="translate(-98.338 -265.085)" fill="#fff"/>
      </g>
    </g>
    <g id="Group_4653" data-name="Group 4653" transform="translate(47.031)">
      <g id="Group_4652" data-name="Group 4652">
        <path id="Path_948" data-name="Path 948" d="M76.643,0H49.386a2.358,2.358,0,0,0-2.355,2.355v33.67a2.358,2.358,0,0,0,2.355,2.355H63.014a.752.752,0,0,0,0-1.5H49.386a.853.853,0,0,1-.852-.852V2.355a.853.853,0,0,1,.852-.852H76.643a.853.853,0,0,1,.852.852V27.207a.752.752,0,1,0,1.5,0V2.355A2.358,2.358,0,0,0,76.643,0Z" transform="translate(-47.031)" fill="#fff"/>
      </g>
    </g>
    <g id="Group_4655" data-name="Group 4655" transform="translate(65.07 16.835)">
      <g id="Group_4654" data-name="Group 4654" transform="translate(0)">
        <path id="Path_949" data-name="Path 949" d="M258.12,193.22a2.773,2.773,0,0,0-1.949.548,2.737,2.737,0,0,0-2.059-1.35,2.774,2.774,0,0,0-1.949.548,2.737,2.737,0,0,0-2.059-1.35,2.777,2.777,0,0,0-1.534.288v-9.571a2.756,2.756,0,0,0-3.037-2.742,2.843,2.843,0,0,0-2.474,2.856v9.6l-2.209,2.209a4.73,4.73,0,0,0-1.268,4.456l1.677,7.128a6.339,6.339,0,0,0,6.194,4.906h6.779a6.37,6.37,0,0,0,6.363-6.363v-8.3A2.843,2.843,0,0,0,258.12,193.22Zm.971,11.159a4.866,4.866,0,0,1-4.86,4.86h-6.779a4.842,4.842,0,0,1-4.731-3.747l-1.677-7.128a3.236,3.236,0,0,1,.867-3.049l1.146-1.146v2.595a.752.752,0,1,0,1.5,0V182.448a1.329,1.329,0,0,1,1.121-1.36,1.253,1.253,0,0,1,1.384,1.246v13.228a.752.752,0,0,0,1.5,0v-1.2a1.253,1.253,0,0,1,1.384-1.246,1.329,1.329,0,0,1,1.121,1.36v1.89a.752.752,0,0,0,1.5,0v-1.2a1.253,1.253,0,0,1,1.384-1.246,1.329,1.329,0,0,1,1.121,1.36v1.89a.752.752,0,1,0,1.5,0v-1.2a1.253,1.253,0,0,1,1.384-1.246,1.329,1.329,0,0,1,1.121,1.36v8.3Z" transform="translate(-239.452 -179.578)" fill="#fff"/>
      </g>
    </g>
  </g>
</svg>
