<svg xmlns="http://www.w3.org/2000/svg" width="36.174" height="48" viewBox="0 0 36.174 48"><g transform="translate(-52.142 -0.001)"><path d="M279.93,5.874A1.65,1.65,0,0,1,279.517,7a4.569,4.569,0,0,0-.427.7.851.851,0,1,0,1.54.723,3.08,3.08,0,0,1,.28-.448,3.324,3.324,0,0,0,.721-2.1,3.324,3.324,0,0,0-.721-2.1,1.65,1.65,0,0,1-.413-1.127,1.649,1.649,0,0,1,.413-1.127c.044-.062.087-.124.13-.188a.85.85,0,1,0-1.411-.951c-.037.054-.074.108-.112.161a3.323,3.323,0,0,0-.721,2.1,3.325,3.325,0,0,0,.721,2.1,1.649,1.649,0,0,1,.413,1.127Z" transform="translate(-200.951 0)" fill="#fff"/><path d="M187.768,5.874A1.65,1.65,0,0,1,187.355,7a4.569,4.569,0,0,0-.427.7.851.851,0,1,0,1.54.723,3.1,3.1,0,0,1,.28-.448,3.324,3.324,0,0,0,.721-2.1,3.324,3.324,0,0,0-.721-2.1,1.649,1.649,0,0,1-.413-1.127,1.649,1.649,0,0,1,.413-1.127c.044-.062.087-.124.13-.188a.851.851,0,0,0-1.411-.951c-.037.054-.074.108-.112.161a3.323,3.323,0,0,0-.721,2.1,3.323,3.323,0,0,0,.721,2.1,1.648,1.648,0,0,1,.413,1.127Z" transform="translate(-119.24 -0.001)" fill="#fff"/><path d="M95.609,5.875A1.65,1.65,0,0,1,95.2,7a4.569,4.569,0,0,0-.427.7.851.851,0,1,0,1.54.723,3.1,3.1,0,0,1,.28-.448,3.324,3.324,0,0,0,.721-2.1,3.324,3.324,0,0,0-.721-2.1,1.649,1.649,0,0,1-.413-1.127,1.649,1.649,0,0,1,.413-1.127c.044-.062.087-.124.13-.188A.851.851,0,0,0,95.308.378c-.037.054-.074.108-.111.161a3.323,3.323,0,0,0-.721,2.1,3.323,3.323,0,0,0,.721,2.1A1.648,1.648,0,0,1,95.609,5.875Z" transform="translate(-37.532 -0.001)" fill="#fff"/><path d="M317.438,112.784a2.271,2.271,0,0,0-2.1,1.418H313.98a.851.851,0,1,0,0,1.7h1.358a2.267,2.267,0,1,0,2.1-3.119Zm0,2.835a.567.567,0,1,1,.567-.567A.568.568,0,0,1,317.438,115.619Z" transform="translate(-231.39 -99.993)" fill="#fff"/><path d="M321.748,367.48v-1.358a.851.851,0,1,0-1.7,0v1.358a2.268,2.268,0,1,0,1.7,0Zm-.851,2.668a.567.567,0,1,1,.567-.567A.568.568,0,0,1,320.9,370.148Z" transform="translate(-236.267 -323.848)" fill="#fff"/><path d="M246.551,126.985h4.1a.851.851,0,1,0,0-1.7h-4.1a.851.851,0,1,0,0,1.7Z" transform="translate(-171.608 -111.076)" fill="#fff"/><path d="M142.973,254.278h-4.1a.851.851,0,0,0,0,1.7h4.1a.851.851,0,1,0,0-1.7Z" transform="translate(-76.145 -225.441)" fill="#fff"/><path d="M188.9,190.632a.851.851,0,0,0,.851.851h4.1a.851.851,0,0,0,0-1.7h-4.1A.851.851,0,0,0,188.9,190.632Z" transform="translate(-121.25 -168.259)" fill="#fff"/><path d="M210.187,254.278h-4.1a.851.851,0,1,0,0,1.7h4.1a.851.851,0,1,0,0-1.7Z" transform="translate(-135.737 -225.441)" fill="#fff"/><path d="M322.614,204.028a.85.85,0,0,0,1.067-.555,4.513,4.513,0,0,0-1.2-4.634.851.851,0,1,0-1.17,1.235,2.812,2.812,0,0,1,.748,2.886A.851.851,0,0,0,322.614,204.028Z" transform="translate(-238.41 -176.084)" fill="#fff"/><path d="M256.966,189.781a.851.851,0,0,0,0,1.7h4.1a.851.851,0,0,0,0-1.7Z" transform="translate(-180.842 -168.259)" fill="#fff"/><path d="M277.133,252.878a2.81,2.81,0,0,1-.831.125h-3a.851.851,0,1,0,0,1.7h3a4.511,4.511,0,0,0,1.334-.2.851.851,0,0,0-.5-1.625Z" transform="translate(-195.329 -224.166)" fill="#fff"/><path d="M300.118,321.881a.851.851,0,1,0,1.473-.851,4.524,4.524,0,0,0-3.906-2.256h-.262a.851.851,0,1,0,0,1.7h.262A2.818,2.818,0,0,1,300.118,321.881Z" transform="translate(-216.712 -282.623)" fill="#fff"/><path d="M111.272,126.135a.851.851,0,0,0,.851.851h4.1a.851.851,0,0,0,0-1.7h-4.1A.851.851,0,0,0,111.272,126.135Z" transform="translate(-52.425 -111.076)" fill="#fff"/><path d="M76.963,255.129a.851.851,0,0,0-.851-.851H73.557a4.475,4.475,0,0,0-1.842.393.851.851,0,1,0,.7,1.552,2.785,2.785,0,0,1,1.146-.244h2.556A.851.851,0,0,0,76.963,255.129Z" transform="translate(-16.907 -225.441)" fill="#fff"/><path d="M54.98,284.346a2.784,2.784,0,0,1-1.137-2.256,2.839,2.839,0,0,1,.048-.52.85.85,0,1,0-1.672-.313,4.514,4.514,0,0,0,1.748,4.455.851.851,0,0,0,1.013-1.366Z" transform="translate(0 -248.746)" fill="#fff"/><path d="M54.357,129.686a.849.849,0,0,0,1.075-.539,2.819,2.819,0,0,1,2.3-1.9.85.85,0,1,0-.22-1.687,4.529,4.529,0,0,0-3.692,3.049A.851.851,0,0,0,54.357,129.686Z" transform="translate(-1.447 -111.316)" fill="#fff"/><path d="M99.877,318.774h-4.1a.851.851,0,1,0,0,1.7h4.1a.851.851,0,1,0,0-1.7Z" transform="translate(-37.937 -282.623)" fill="#fff"/><path d="M167.091,318.774H163a.851.851,0,1,0,0,1.7h4.1a.851.851,0,1,0,0-1.7Z" transform="translate(-97.528 -282.623)" fill="#fff"/><path d="M179.336,126.985h4.1a.851.851,0,1,0,0-1.7h-4.1a.851.851,0,1,0,0,1.7Z" transform="translate(-112.015 -111.076)" fill="#fff"/><path d="M121.687,190.632a.851.851,0,0,0,.851.851h4.1a.851.851,0,1,0,0-1.7h-4.1A.851.851,0,0,0,121.687,190.632Z" transform="translate(-61.658 -168.259)" fill="#fff"/><path d="M63.069,178.344h-.7a2.786,2.786,0,0,1-2.246-1.123.851.851,0,1,0-1.36,1.022,4.473,4.473,0,0,0,3.606,1.8h.7a.851.851,0,0,0,0-1.7Z" transform="translate(-5.717 -156.821)" fill="#fff"/><path d="M234.305,318.774h-4.1a.851.851,0,1,0,0,1.7h4.1a.851.851,0,1,0,0-1.7Z" transform="translate(-157.12 -282.623)" fill="#fff"/></g></svg>