<svg xmlns="http://www.w3.org/2000/svg" width="20.8" height="24" viewBox="0 0 20.8 24"><g transform="translate(-0.5)"><path d="M19.3,2a1.981,1.981,0,0,0-2-2H2.5a1.981,1.981,0,0,0-2,2V5.2H3.7V22a1.981,1.981,0,0,0,2,2H19.3a1.981,1.981,0,0,0,2-2V20h-2ZM3.7,4.4H1.3V2A1.178,1.178,0,0,1,2.5.8,1.178,1.178,0,0,1,3.7,2ZM4.5,22V2A2.155,2.155,0,0,0,4.1.8H17.3A1.178,1.178,0,0,1,18.5,2V20H6.9v2a1.2,1.2,0,1,1-2.4,0Zm16-1.2V22a1.178,1.178,0,0,1-1.2,1.2H7.3A1.887,1.887,0,0,0,7.7,22V20.8Zm0,0" fill="#fab702"/><path d="M280.5,256h3.2v.8h-3.2Zm0,0" transform="translate(-266 -243.2)" fill="#fab702"/><path d="M96.5,256h8.4v.8H96.5Zm0,0" transform="translate(-91.2 -243.2)" fill="#fab702"/><path d="M184.5,288h8v.8h-8Zm0,0" transform="translate(-174.8 -273.6)" fill="#fab702"/><path d="M96.5,288h3.6v.8H96.5Zm0,0" transform="translate(-91.2 -273.6)" fill="#fab702"/><path d="M240.5,352h5.2v.8h-5.2Zm0,0" transform="translate(-228 -334.4)" fill="#fab702"/><path d="M96.5,352h6.4v.8H96.5Zm0,0" transform="translate(-91.2 -334.4)" fill="#fab702"/><path d="M162.819,38.56l.48.32.48-.32a5.228,5.228,0,0,0,2.32-4.32V32.92L163.3,32l-2.8.92v1.32A5.228,5.228,0,0,0,162.819,38.56Zm-1.52-5.08,2-.68,2,.68v.76a4.414,4.414,0,0,1-1.96,3.68h-.04l-.04-.04a4.363,4.363,0,0,1-1.96-3.68Zm0,0" transform="translate(-152 -30.4)" fill="#fab702"/><path d="M206.3,79.279l-.8-.08a2.479,2.479,0,0,1-1,1.72l.44.68a3.28,3.28,0,0,0,1.36-2.32Zm0,0" transform="translate(-193.8 -75.239)" fill="#fab702"/><path d="M144.5,320h10v.8h-10Zm0,0" transform="translate(-136.8 -304)" fill="#fab702"/><path d="M96.5,320h1.6v.8H96.5Zm0,0" transform="translate(-91.2 -304)" fill="#fab702"/><path d="M184.5,224h8v.8h-8Zm0,0" transform="translate(-174.8 -212.8)" fill="#fab702"/><path d="M96.5,224h3.6v.8H96.5Zm0,0" transform="translate(-91.2 -212.8)" fill="#fab702"/><path d="M160.5,184h5.6v.8h-5.6Zm0,0" transform="translate(-152 -174.8)" fill="#fab702"/></g></svg>