<svg xmlns="http://www.w3.org/2000/svg" width="48" height="48.011" viewBox="0 0 48 48.011"><g transform="translate(-0.017 0)"><g transform="translate(0.017 0.001)"><path d="M39.126,5.321l-12-5.254a.8.8,0,0,0-.64,0l-12,5.254a.8.8,0,0,0-.48.733V18.617a8.813,8.813,0,0,0,3.649,7.128l8.3,5.983a1.464,1.464,0,0,0,1.717,0l8.3-5.982a8.813,8.813,0,0,0,3.649-7.128V6.054A.8.8,0,0,0,39.126,5.321Zm-1.12,13.3a7.209,7.209,0,0,1-2.985,5.83L26.8,30.375l-8.218-5.927a7.209,7.209,0,0,1-2.985-5.83V6.578l11.2-4.9,11.2,4.9Z" transform="translate(-2.811 -0.001)" fill="#fff"/><path d="M27.282,4.433l-8.8,3.854A.8.8,0,0,0,18,9.02V19.49a5.6,5.6,0,0,0,2.321,4.532l6.814,4.915a.8.8,0,0,0,.936,0l6.814-4.915A5.6,5.6,0,0,0,37.2,19.49V9.02a.8.8,0,0,0-.48-.733l-8.8-3.854A.8.8,0,0,0,27.282,4.433ZM35.6,9.542V19.49a4,4,0,0,1-1.656,3.234L27.6,27.3l-6.345-4.577A4,4,0,0,1,19.6,19.49V9.542l8-3.5Z" transform="translate(-3.611 -0.873)" fill="#fff"/><path d="M6.633,31.81,4.9,27.766a2.551,2.551,0,0,0-4.667,2.06l3.136,6.9a8.5,8.5,0,0,0,1.737,2.508l4.932,4.932a1.591,1.591,0,0,0-.434,1.088v6.4a1.6,1.6,0,0,0,1.6,1.6h8.8a1.6,1.6,0,0,0,1.6-1.6v-6.4a1.6,1.6,0,0,0-1.6-1.6V42.164a8.384,8.384,0,0,0-1.754-5.241,5.761,5.761,0,0,0-2.667-1.945,15.828,15.828,0,0,1-4.581-2.94A3.681,3.681,0,0,0,6.633,31.81ZM20.008,51.655h-8.8v-6.4h8.8ZM17,37.922a6.79,6.79,0,0,1,1.4,4.242v1.489H11.791L6.239,38.1a6.921,6.921,0,0,1-1.412-2.038l-3.136-6.9a.951.951,0,1,1,1.74-.768l1.79,4.175a9.443,9.443,0,0,0,2.018,2.981l3.655,3.656a.8.8,0,1,0,1.131-1.131L8.37,34.421a7.893,7.893,0,0,1-.987-1.2,2.08,2.08,0,0,1,2.592.043A17.059,17.059,0,0,0,15.081,36.5,4.2,4.2,0,0,1,17,37.922Z" transform="translate(-0.017 -5.245)" fill="#fff"/><path d="M21.6,53h-.8a.8.8,0,1,0,0,1.6h.8a.8.8,0,1,0,0-1.6Z" transform="translate(-4.01 -10.591)" fill="#fff"/><path d="M51.238,36.716l3.136-6.9a2.551,2.551,0,1,0-4.667-2.06L47.98,31.786a3.691,3.691,0,0,0-4.378.24,15.828,15.828,0,0,1-4.581,2.94,5.761,5.761,0,0,0-2.667,1.945A8.384,8.384,0,0,0,34.6,42.155v1.489a1.6,1.6,0,0,0-1.6,1.6v6.4a1.6,1.6,0,0,0,1.6,1.6h8.8a1.6,1.6,0,0,0,1.6-1.6v-6.4a1.591,1.591,0,0,0-.434-1.088L49.5,39.223A8.5,8.5,0,0,0,51.238,36.716ZM43.4,51.646H34.6v-6.4h8.8Zm-.585-8H36.2V42.155a6.79,6.79,0,0,1,1.4-4.241,4.206,4.206,0,0,1,1.92-1.427,17.052,17.052,0,0,0,5.106-3.233,2.081,2.081,0,0,1,2.6-.05,7.846,7.846,0,0,1-.991,1.208L42.58,38.068A.8.8,0,0,0,43.711,39.2l3.655-3.656a9.442,9.442,0,0,0,2.018-2.981l1.79-4.175a.951.951,0,1,1,1.74.769l-3.136,6.9a6.92,6.92,0,0,1-1.412,2.038Z" transform="translate(-6.608 -5.235)" fill="#fff"/><path d="M38.6,53h-.8a.8.8,0,1,0,0,1.6h.8a.8.8,0,0,0,0-1.6Z" transform="translate(-7.407 -10.591)" fill="#fff"/><path d="M24.28,19.362a.8.8,0,0,0-.96,1.28l3.2,2.4a.8.8,0,0,0,.48.16.861.861,0,0,0,.135-.011.8.8,0,0,0,.531-.345l6.4-9.6a.8.8,0,0,0-1.332-.888l-5.933,8.9Z" transform="translate(-4.61 -2.398)" fill="#fff"/></g></g></svg>