<svg xmlns="http://www.w3.org/2000/svg" width="12.833" height="16" viewBox="0 0 12.833 16"><path d="M53.613,0A6.422,6.422,0,0,0,47.2,6.413a6.312,6.312,0,0,0,.114,1.2c0,.023.017.094.044.215A6.316,6.316,0,0,0,47.787,9.1a17.979,17.979,0,0,0,5.545,6.8.454.454,0,0,0,.57,0,18.013,18.013,0,0,0,5.545-6.8,6.245,6.245,0,0,0,.429-1.265c.027-.121.04-.191.044-.215a6.6,6.6,0,0,0,.114-1.2A6.432,6.432,0,0,0,53.613,0Zm5.407,7.46c0,.007,0,.013,0,.02s-.013.067-.03.144v.007a5.325,5.325,0,0,1-.372,1.094s0,.01-.007.013a16.779,16.779,0,0,1-4.995,6.226,16.779,16.779,0,0,1-4.995-6.226s0-.01-.007-.013a5.68,5.68,0,0,1-.372-1.094V7.624c-.02-.077-.027-.127-.03-.144s0-.013,0-.023a5.507,5.507,0,1,1,10.814,0Z" transform="translate(-47.2)" fill="#fff"/><path d="M121.072,71.9a4.072,4.072,0,1,0,4.072,4.072A4.078,4.078,0,0,0,121.072,71.9Zm0,7.239a3.166,3.166,0,1,1,3.166-3.166A3.17,3.17,0,0,1,121.072,79.139Z" transform="translate(-114.659 -69.488)" fill="#fff"/></svg>