<svg xmlns="http://www.w3.org/2000/svg" width="32" height="32" viewBox="0 0 32 32"><g transform="translate(0 -0.001)"><g transform="translate(0 17.6)"><path d="M29.556,264h-.019a2.41,2.41,0,0,0-1.641.64l-5.778,5.333a1.6,1.6,0,0,1-1.086.427h-8.1a1.067,1.067,0,1,1,0-2.133h5.607a2.133,2.133,0,1,0,0-4.267h-8.7a6.923,6.923,0,0,0-3.675,1.054l-1.894,1.186v-.64H0v12.8H4.267V277.33H15.511a6.942,6.942,0,0,0,1.054-.081l4.379-.674a6.89,6.89,0,0,0,3.848-1.95l6.5-6.5a2.4,2.4,0,0,0,.709-1.71A2.431,2.431,0,0,0,29.556,264ZM3.2,277.33H1.067V266.663H3.2Zm27.337-9.957h0l-6.5,6.5a5.832,5.832,0,0,1-3.256,1.65L16.4,276.2a5.9,5.9,0,0,1-.892.068H4.267v-8.771l2.46-1.537a5.859,5.859,0,0,1,3.109-.892h8.7a1.067,1.067,0,1,1,0,2.133H12.93a2.133,2.133,0,1,0,0,4.267h8.1a2.66,2.66,0,0,0,1.809-.707l5.779-5.333a1.381,1.381,0,0,1,.96-.358,1.352,1.352,0,0,1,.956,2.308Z" transform="translate(0 -263.997)" fill="#fff"/></g><g transform="translate(8 0.001)"><path d="M135.893,5.547a.533.533,0,0,0-.427-.213h-4.972l-2-5a.533.533,0,0,0-.99,0l-2,5h-4.972a.533.533,0,0,0-.32.96l3.95,2.963-2,5.493a.533.533,0,0,0,.834.6l4.982-3.986,4.464,3.967a.533.533,0,0,0,.869-.539l-1.5-5.515,3.977-2.983A.533.533,0,0,0,135.893,5.547ZM130.88,8.641a.533.533,0,0,0-.195.567l1.128,4.136-3.459-3.075a.533.533,0,0,0-.687-.018l-3.85,3.079L125.3,9.25a.533.533,0,0,0-.182-.609L122.133,6.4h3.733a.533.533,0,0,0,.5-.335L128,1.97l1.638,4.1a.533.533,0,0,0,.5.335h3.733Z" transform="translate(-120 -0.001)" fill="#fff"/></g><g transform="translate(9.756 1.224)"><rect width="1.067" height="3.017" transform="translate(0 0.754) rotate(-45)" fill="#fff"/></g><g transform="translate(19.356 1.223)"><rect width="3.017" height="1.067" transform="translate(0 2.133) rotate(-45)" fill="#fff"/></g><g transform="translate(6.933 9.601)"><rect width="3.2" height="1.067" fill="#fff"/></g><g transform="translate(21.867 9.601)"><rect width="3.2" height="1.067" fill="#fff"/></g><g transform="translate(15.467 12.801)"><rect width="1.067" height="3.2" fill="#fff"/></g></g></svg>