<svg xmlns="http://www.w3.org/2000/svg" xmlns:xlink="http://www.w3.org/1999/xlink" width="14.813" height="16" viewBox="0 0 14.813 16"><defs><clipPath id="a"><rect width="14.813" height="16" fill="none"/></clipPath></defs><g clip-path="url(#a)"><path d="M110.215,72.215a4.813,4.813,0,1,0-3.4,1.41A4.781,4.781,0,0,0,110.215,72.215Zm-7.59-3.4a4.188,4.188,0,1,1,1.227,2.961A4.16,4.16,0,0,1,102.625,68.813Z" transform="translate(-99.406 -62)" fill="#fff"/><path d="M246.435,101.988a.312.312,0,0,0,.313-.312v-.29a.313.313,0,0,0-.625,0v.29A.312.312,0,0,0,246.435,101.988Z" transform="translate(-239.024 -97.914)" fill="#fff"/><path d="M343.974,208.747h.29a.313.313,0,0,0,0-.625h-.29a.313.313,0,0,0,0,.625Z" transform="translate(-333.516 -201.618)" fill="#fff"/><path d="M139.675,207.878h-.29a.313.313,0,0,0,0,.625h.29a.313.313,0,0,0,0-.625Z" transform="translate(-135.321 -201.382)" fill="#fff"/><path d="M227.156,192.176v-2.445a.94.94,0,0,0,.575-.575h.956a.313.313,0,0,0,0-.625h-.956a.941.941,0,1,0-1.2,1.2v2.445a.313.313,0,0,0,.625,0Zm-.536-3.556a.316.316,0,1,1-.093.223A.314.314,0,0,1,226.62,188.62Z" transform="translate(-219.437 -182.031)" fill="#fff"/><path d="M33.5,13.625H20.219V13h2.188a.313.313,0,0,0,0-.625H20.219V6.813a6.188,6.188,0,0,1,12.375,0v4.625a.313.313,0,0,0,.625,0V6.813a6.813,6.813,0,0,0-13.625,0v6.813h-.281a.312.312,0,0,0-.312.313v1.75a.312.312,0,0,0,.313.313H33.5a.312.312,0,0,0,.313-.312v-1.75A.312.312,0,0,0,33.5,13.625Zm-.312,1.75H19.625V14.25H33.188Z" transform="translate(-19)" fill="#fff"/><path d="M158.092,396.092a.312.312,0,1,0,.221-.092A.315.315,0,0,0,158.092,396.092Z" transform="translate(-153.656 -383.625)" fill="#fff"/><path d="M454.313,396a.313.313,0,1,0,.221.092A.315.315,0,0,0,454.313,396Z" transform="translate(-440.406 -383.625)" fill="#fff"/></g></svg>